<?xml version="1.0" encoding="UTF-8" standalone="no"?>
<!DOCTYPE svg PUBLIC "-//W3C//DTD SVG 1.1//EN" "http://www.w3.org/Graphics/SVG/1.1/DTD/svg11.dtd">
<svg xmlns="http://www.w3.org/2000/svg" version="1.1" viewBox="0.00 0.00 750.00 750.00">
<g stroke-width="2.00" fill="none" stroke-linecap="butt">
<path stroke="#808080" vector-effect="non-scaling-stroke" d="
  M 198.64 343.40
  Q 204.03 340.70 210.97 340.88
  Q 214.44 340.97 219.79 342.80
  C 247.41 352.27 272.71 352.93 301.81 352.36
  C 305.87 352.28 309.20 349.93 307.97 345.56
  C 306.77 341.34 302.69 337.49 299.12 334.64
  C 284.37 322.83 268.44 319.12 249.82 319.07
  Q 239.82 319.04 231.00 320.99
  Q 219.65 323.49 195.75 330.47
  Q 190.01 332.15 184.94 335.74"
/>
<path stroke="#808080" vector-effect="non-scaling-stroke" d="
  M 578.78 306.50
  C 578.44 311.19 583.71 313.20 587.42 313.52
  C 594.19 314.10 595.94 307.25 592.80 302.17
  C 589.42 296.69 586.62 292.41 585.27 286.27
  Q 584.54 282.95 583.60 279.79
  A 0.51 0.51 0.0 0 0 582.62 279.83
  Q 579.75 292.97 578.78 306.50"
/>
</g>
<path fill="#000000" d="
  M 198.64 343.40
  Q 204.03 340.70 210.97 340.88
  Q 214.44 340.97 219.79 342.80
  C 247.41 352.27 272.71 352.93 301.81 352.36
  C 305.87 352.28 309.20 349.93 307.97 345.56
  C 306.77 341.34 302.69 337.49 299.12 334.64
  C 284.37 322.83 268.44 319.12 249.82 319.07
  Q 239.82 319.04 231.00 320.99
  Q 219.65 323.49 195.75 330.47
  Q 190.01 332.15 184.94 335.74
  Q 179.13 337.58 172.95 339.81
  C 171.05 340.50 169.22 340.73 167.42 341.60
  C 163.57 343.46 159.79 343.57 155.12 345.04
  C 150.24 346.58 144.86 346.83 139.80 347.76
  C 132.76 349.06 124.82 349.50 118.02 347.93
  C 112.53 346.66 106.04 346.75 101.17 343.75
  Q 100.75 343.49 100.25 343.50
  C 97.34 343.56 91.65 340.21 86.86 337.80
  C 83.88 336.30 81.41 333.84 78.43 332.13
  A 1.79 1.78 50.0 0 1 78.71 328.90
  C 87.03 325.89 96.39 325.53 104.48 321.63
  C 106.29 320.76 108.21 320.70 109.88 320.09
  C 117.98 317.13 126.48 314.14 134.31 310.55
  Q 173.99 292.41 201.27 278.61
  C 205.34 276.55 211.37 273.99 216.21 271.23
  C 217.17 270.68 218.20 270.72 219.29 270.19
  C 239.51 260.39 258.20 253.24 277.48 245.55
  C 278.54 245.13 279.20 245.25 280.30 245.25
  A 1.71 1.71 0.0 0 0 281.19 245.00
  C 284.67 242.89 288.02 243.11 291.43 241.76
  C 293.42 240.97 294.97 240.25 297.20 240.02
  C 301.88 239.54 306.22 237.34 310.76 237.24
  Q 314.21 237.15 315.75 236.72
  Q 323.31 234.62 331.10 234.66
  C 337.08 234.69 343.14 233.73 349.12 234.27
  Q 353.06 234.63 357.45 234.67
  C 364.08 234.73 369.98 236.98 376.49 237.19
  Q 379.23 237.27 381.85 238.24
  C 386.76 240.05 390.81 239.72 395.14 241.57
  C 397.84 242.73 400.52 242.93 403.21 244.11
  Q 405.02 244.92 407.38 245.41
  C 410.13 245.99 412.00 247.55 414.74 248.25
  C 416.90 248.81 418.36 250.22 420.40 250.79
  C 424.07 251.80 427.87 254.15 431.35 255.77
  C 440.50 260.03 449.76 266.01 457.74 269.52
  Q 463.44 272.02 474.09 275.16
  Q 476.29 275.81 479.16 276.06
  C 484.19 276.48 488.19 278.70 493.20 278.82
  C 499.41 278.97 503.82 279.76 509.19 279.97
  C 510.71 280.03 511.85 280.76 513.29 280.75
  C 523.76 280.74 533.58 280.80 544.48 279.91
  Q 557.85 278.83 571.17 277.30
  C 581.99 276.07 592.96 276.62 603.93 276.08
  Q 606.35 275.96 609.26 274.88
  C 612.32 273.75 615.24 273.20 618.44 272.13
  Q 623.90 270.30 629.74 270.79
  Q 630.27 270.83 630.76 270.61
  Q 633.65 269.31 636.57 270.70
  A 1.84 1.73 52.7 0 0 637.54 270.86
  Q 642.55 270.18 647.12 271.99
  C 649.44 272.91 652.00 273.33 653.80 274.20
  C 665.36 279.78 671.26 285.21 677.73 296.02
  C 678.89 297.96 679.30 301.54 681.83 302.92
  Q 695.32 310.31 708.60 318.09
  C 710.95 319.47 713.33 324.28 708.76 325.15
  C 704.47 325.96 701.47 324.71 697.67 324.82
  C 693.35 324.94 688.98 323.99 685.10 324.00
  C 676.39 324.01 664.97 325.15 656.59 323.42
  C 649.81 322.01 641.30 322.64 635.24 322.77
  C 634.08 322.80 633.42 323.47 632.20 323.51
  Q 624.90 323.79 617.76 322.02
  C 616.33 321.67 614.13 322.23 612.36 321.91
  Q 605.10 320.60 597.83 319.33
  C 589.24 317.84 580.23 318.72 571.51 318.75
  C 565.88 318.76 556.54 326.70 552.52 330.47
  Q 552.15 330.81 552.04 331.29
  Q 551.76 332.43 550.45 333.93
  C 545.86 339.18 538.47 351.46 538.49 359.28
  Q 538.50 364.67 538.51 370.04
  C 538.51 374.21 540.48 377.90 541.45 381.96
  C 542.75 387.36 545.50 391.85 547.69 396.80
  Q 547.89 397.27 548.28 397.61
  C 549.35 398.53 549.41 399.86 549.98 400.90
  Q 554.35 408.80 555.00 411.22
  Q 555.64 413.62 556.30 415.17
  C 557.91 418.93 558.38 422.59 559.79 426.36
  C 560.62 428.59 560.82 430.59 561.26 432.86
  C 561.67 435.00 562.91 436.89 563.22 439.21
  C 563.91 444.47 565.70 449.46 566.56 454.74
  C 567.20 458.74 568.88 462.09 569.23 466.15
  C 569.58 470.30 571.97 473.62 572.06 478.07
  C 572.17 483.06 574.23 486.48 574.66 491.24
  Q 575.04 495.48 577.15 499.26
  A 1.55 1.53 -56.7 0 1 577.33 500.16
  C 576.75 506.00 579.93 509.78 580.33 514.94
  C 580.67 519.27 582.79 521.68 583.18 526.26
  C 583.44 529.30 584.95 531.56 585.61 534.52
  Q 586.17 537.01 586.96 538.84
  C 588.81 543.09 588.22 546.82 590.99 550.78
  A 1.48 1.47 28.6 0 1 591.26 551.69
  C 591.12 554.87 594.25 561.92 595.71 565.13
  C 596.87 567.67 597.33 570.37 598.46 572.75
  Q 601.54 579.23 604.33 585.82
  C 605.52 588.62 607.45 591.32 608.58 594.39
  A 1.28 1.28 0.0 0 1 607.77 596.05
  C 604.17 597.23 603.42 595.09 601.13 593.70
  Q 587.52 585.46 578.20 578.54
  Q 544.63 553.62 510.01 522.49
  Q 448.97 467.62 391.23 409.27
  Q 389.40 407.41 382.99 402.52
  Q 382.60 402.22 382.11 402.23
  L 378.76 402.30
  A 1.06 1.05 15.1 0 0 377.88 402.80
  C 375.10 407.27 374.94 415.18 374.53 419.62
  Q 374.32 421.93 373.51 423.85
  C 371.84 427.80 371.42 431.47 369.88 435.28
  C 368.89 437.74 368.92 440.61 367.69 443.13
  C 366.30 445.97 365.09 449.76 364.04 452.79
  C 357.18 472.61 347.77 494.10 334.72 510.68
  C 331.42 514.86 329.52 512.07 326.41 510.26
  Q 304.01 497.28 285.99 478.83
  Q 284.00 476.79 281.33 472.98
  C 279.41 470.25 276.97 467.59 275.25 465.02
  Q 263.15 446.90 254.40 426.94
  Q 254.34 426.81 252.68 423.87
  C 251.81 422.31 251.77 420.82 251.05 419.37
  C 249.59 416.47 248.51 413.83 246.89 410.66
  Q 246.14 409.20 245.94 407.51
  Q 245.88 407.02 245.60 406.63
  Q 244.71 405.34 243.24 401.97
  Q 240.20 394.99 235.21 386.34
  C 225.71 369.89 213.37 355.79 198.64 343.40
  Z
  M 578.78 306.50
  C 578.44 311.19 583.71 313.20 587.42 313.52
  C 594.19 314.10 595.94 307.25 592.80 302.17
  C 589.42 296.69 586.62 292.41 585.27 286.27
  Q 584.54 282.95 583.60 279.79
  A 0.51 0.51 0.0 0 0 582.62 279.83
  Q 579.75 292.97 578.78 306.50
  Z"
/>
<path fill="#ffffff" d="
  M 587.42 313.52
  C 583.71 313.20 578.44 311.19 578.78 306.50
  Q 579.75 292.97 582.62 279.83
  A 0.51 0.51 0.0 0 1 583.60 279.79
  Q 584.54 282.95 585.27 286.27
  C 586.62 292.41 589.42 296.69 592.80 302.17
  C 595.94 307.25 594.19 314.10 587.42 313.52
  Z"
/>
<path fill="#ffffff" d="
  M 198.64 343.40
  Q 195.57 339.74 191.26 338.47
  Q 187.12 337.25 184.94 335.74
  Q 190.01 332.15 195.75 330.47
  Q 219.65 323.49 231.00 320.99
  Q 239.82 319.04 249.82 319.07
  C 268.44 319.12 284.37 322.83 299.12 334.64
  C 302.69 337.49 306.77 341.34 307.97 345.56
  C 309.20 349.93 305.87 352.28 301.81 352.36
  C 272.71 352.93 247.41 352.27 219.79 342.80
  Q 214.44 340.97 210.97 340.88
  Q 204.03 340.70 198.64 343.40
  Z"
/>
</svg>
