<svg viewBox="0 0 6000 4000" xmlns="http://www.w3.org/2000/svg">
  <defs></defs>
  <g transform="matrix(200, 0, 0, 200, 0, 0)">
    <title>Layer 1</title>
    <path d="M 6 0 L 24 0 C 27.314 0 30 2.686 30 6 L 30 14 C 30 17.314 27.314 20 24 20 L 6 20 C 2.686 20 0 17.314 0 14 L 0 6 C 0 2.686 2.686 0 6 0 Z" id="svg_1" style="fill: rgb(113, 97, 239);"></path>
    <path d="M 6 -0.5 L 24 -0.5 C 25.759 -0.478 27.447 0.255 28.596 1.404 C 29.745 2.553 30.478 4.241 30.5 6 L 30.5 14 C 30.478 15.759 29.745 17.447 28.596 18.596 C 27.447 19.745 25.759 20.478 24 20.5 L 6 20.5 C 4.241 20.478 2.553 19.745 1.404 18.596 C 0.255 17.447 -0.478 15.759 -0.5 14 L -0.5 6 C -0.478 4.241 0.255 2.553 1.404 1.404 C 2.553 0.255 4.241 -0.478 6 -0.5 Z M 2.111 2.111 C 1.088 3.134 0.478 4.445 0.5 6 L 0.5 14 C 0.478 15.555 1.088 16.866 2.111 17.889 C 3.134 18.912 4.445 19.522 6 19.5 L 24 19.5 C 25.555 19.522 26.866 18.912 27.889 17.889 C 28.912 16.866 29.522 15.555 29.5 14 L 29.5 6 C 29.522 4.445 28.912 3.134 27.889 2.111 C 26.866 1.088 25.555 0.478 24 0.5 L 6 0.5 C 4.445 0.478 3.134 1.088 2.111 2.111 Z" style="fill: rgba(255, 255, 255, 0);"></path>
    <path d="M 14.844 5.852 L 16.36 14.305 L 18.266 14.305 L 19.164 9.79 L 19.336 8.93 L 19.516 9.79 L 20.446 14.305 L 22.352 14.305 L 23.867 5.852 L 21.875 5.852 L 21.25 10.837 L 21.141 11.657 L 20.992 10.852 L 20.078 5.852 L 18.625 5.852 L 17.711 10.876 L 17.563 11.68 L 17.461 10.876 L 16.828 5.852 L 14.844 5.852 Z M 6.133 5.852 L 6.133 14.305 L 8.313 14.305 L 8.313 8.298 C 8.386 8.183 8.466 8.079 8.555 7.985 C 8.643 7.891 8.743 7.81 8.852 7.743 C 8.963 7.666 9.085 7.605 9.213 7.563 C 9.247 7.551 9.282 7.541 9.317 7.532 C 9.431 7.502 9.547 7.481 9.664 7.472 C 9.739 7.465 9.815 7.461 9.891 7.462 C 10.141 7.462 10.365 7.486 10.563 7.536 C 10.686 7.566 10.804 7.614 10.913 7.681 C 10.969 7.715 11.021 7.754 11.07 7.798 C 11.157 7.875 11.23 7.966 11.287 8.068 C 11.33 8.144 11.366 8.225 11.395 8.309 C 11.452 8.471 11.487 8.667 11.501 8.897 C 11.506 8.975 11.508 9.054 11.508 9.134 L 11.508 14.305 L 13.68 14.305 L 13.68 9.102 C 13.68 8.603 13.633 8.165 13.538 7.788 C 13.517 7.703 13.493 7.619 13.465 7.536 C 13.322 7.106 13.122 6.753 12.867 6.477 C 12.611 6.209 12.296 6.006 11.946 5.884 C 11.693 5.795 11.43 5.738 11.163 5.714 C 11.034 5.701 10.904 5.695 10.774 5.696 C 10.441 5.696 10.125 5.743 9.828 5.837 C 9.535 5.928 9.258 6.065 9.008 6.243 C 8.862 6.347 8.724 6.464 8.594 6.594 C 8.462 6.726 8.342 6.87 8.235 7.024 L 8.102 5.852 L 6.133 5.852 Z" vector-effect="non-scaling-stroke" style="fill: rgb(255, 255, 255);"></path>
  </g>
</svg>