<?xml version="1.0" encoding="utf-8"?>
<svg viewBox="0 0 30 20" xmlns="http://www.w3.org/2000/svg">
  <g transform="matrix(1, 0, 0, 1, 0, 0)">
    <title>Layer 1</title>
    <path d="M 6 0 H 24 A 6 6 0 0 1 30 6 V 14 A 6 6 0 0 1 24 20 H 6 A 6 6 0 0 1 0 14 V 6 A 6 6 0 0 1 6 0 Z" id="svg_1" style="fill: rgb(118, 130, 115);"/>
    <path d="M 6 -0.5 L 24 -0.5 C 25.759 -0.478 27.447 0.255 28.596 1.404 C 29.745 2.553 30.478 4.241 30.5 6 L 30.5 14 C 30.478 15.759 29.745 17.447 28.596 18.596 C 27.447 19.745 25.759 20.478 24 20.5 L 6 20.5 C 4.241 20.478 2.553 19.745 1.404 18.596 C 0.255 17.447 -0.478 15.759 -0.5 14 L -0.5 6 C -0.478 4.241 0.255 2.553 1.404 1.404 C 2.553 0.255 4.241 -0.478 6 -0.5 Z M 2.111 2.111 C 1.088 3.134 0.478 4.445 0.5 6 L 0.5 14 C 0.478 15.555 1.088 16.866 2.111 17.889 C 3.134 18.912 4.445 19.522 6 19.5 L 24 19.5 C 25.555 19.522 26.866 18.912 27.889 17.889 C 28.912 16.866 29.522 15.555 29.5 14 L 29.5 6 C 29.522 4.445 28.912 3.134 27.889 2.111 C 26.866 1.088 25.555 0.478 24 0.5 L 6 0.5 C 4.445 0.478 3.134 1.088 2.111 2.111 Z" style="fill: rgba(255, 255, 255, 0);"/>
    <path d="M 19.387 7.152 L 19.371 6.965 L 19.286 5.769 L 17.262 5.769 L 17.262 14.222 L 19.434 14.222 L 19.434 9.144 C 19.495 8.995 19.57 8.853 19.659 8.718 C 19.705 8.649 19.755 8.583 19.809 8.519 C 19.962 8.341 20.148 8.192 20.356 8.082 C 20.477 8.015 20.604 7.961 20.736 7.919 C 20.81 7.896 20.885 7.876 20.961 7.859 C 21.088 7.832 21.217 7.813 21.346 7.801 C 21.471 7.79 21.597 7.785 21.723 7.785 C 21.916 7.786 22.109 7.794 22.302 7.809 C 22.395 7.817 22.487 7.826 22.579 7.836 C 22.875 7.87 23.168 7.92 23.457 7.988 L 23.778 5.824 C 23.606 5.772 23.381 5.724 23.102 5.68 C 22.929 5.653 22.754 5.634 22.579 5.624 C 22.45 5.617 22.321 5.613 22.192 5.613 C 21.641 5.609 21.099 5.75 20.621 6.023 C 20.142 6.297 19.731 6.673 19.387 7.152 Z M 6.223 9.918 L 6.223 10.082 C 6.222 10.453 6.257 10.823 6.327 11.187 C 6.368 11.394 6.422 11.598 6.489 11.797 C 6.619 12.189 6.809 12.559 7.053 12.892 C 7.121 12.985 7.194 13.074 7.27 13.16 C 7.609 13.546 8.027 13.846 8.524 14.062 C 8.847 14.201 9.188 14.295 9.537 14.341 C 9.764 14.373 9.994 14.388 10.223 14.387 C 10.532 14.389 10.841 14.36 11.144 14.3 C 11.408 14.249 11.665 14.169 11.911 14.062 C 12.39 13.858 12.817 13.55 13.161 13.16 C 13.462 12.815 13.7 12.419 13.864 11.99 C 13.889 11.927 13.912 11.862 13.934 11.797 C 14.064 11.407 14.147 11.003 14.179 10.593 C 14.193 10.423 14.2 10.253 14.2 10.082 L 14.2 9.918 C 14.202 9.541 14.165 9.164 14.091 8.793 C 14.051 8.596 13.999 8.402 13.934 8.211 C 13.811 7.841 13.636 7.49 13.413 7.169 C 13.335 7.058 13.251 6.95 13.161 6.847 C 12.817 6.462 12.398 6.16 11.903 5.941 C 11.408 5.723 10.843 5.613 10.207 5.613 C 9.905 5.612 9.604 5.639 9.308 5.695 C 9.036 5.747 8.77 5.83 8.516 5.941 C 8.04 6.149 7.614 6.458 7.27 6.847 C 6.954 7.205 6.707 7.618 6.541 8.065 C 6.523 8.114 6.506 8.162 6.489 8.211 C 6.354 8.617 6.27 9.039 6.24 9.465 C 6.229 9.616 6.223 9.767 6.223 9.918 Z M 8.395 10.082 L 8.395 9.918 C 8.395 9.574 8.429 9.249 8.496 8.941 C 8.533 8.772 8.586 8.606 8.653 8.445 C 8.7 8.336 8.754 8.23 8.817 8.129 C 8.963 7.895 9.15 7.71 9.379 7.574 C 9.521 7.492 9.676 7.434 9.837 7.404 C 9.959 7.382 10.083 7.371 10.207 7.371 C 10.338 7.371 10.468 7.383 10.596 7.407 C 10.753 7.437 10.905 7.494 11.043 7.574 C 11.273 7.711 11.467 7.901 11.606 8.129 C 11.701 8.289 11.778 8.458 11.835 8.634 C 11.868 8.735 11.896 8.838 11.918 8.941 C 11.972 9.189 12.005 9.442 12.015 9.695 C 12.018 9.77 12.02 9.844 12.02 9.918 L 12.02 10.082 C 12.021 10.306 12.006 10.53 11.976 10.751 C 11.961 10.861 11.942 10.97 11.918 11.078 C 11.885 11.233 11.84 11.384 11.782 11.531 C 11.734 11.655 11.675 11.774 11.606 11.887 C 11.46 12.121 11.272 12.306 11.043 12.441 C 10.895 12.528 10.732 12.587 10.562 12.616 C 10.45 12.636 10.337 12.645 10.223 12.644 C 9.895 12.644 9.615 12.577 9.383 12.441 C 9.152 12.306 8.957 12.116 8.817 11.887 C 8.723 11.738 8.646 11.578 8.589 11.41 C 8.552 11.302 8.52 11.191 8.496 11.078 C 8.449 10.857 8.418 10.633 8.405 10.407 C 8.398 10.299 8.395 10.191 8.395 10.082 Z" vector-effect="non-scaling-stroke" style="fill: rgb(255, 255, 255); font-family: &quot;Roboto Mono&quot;; font-size: 16px; font-weight: 700; stroke: rgb(255, 255, 255); stroke-width: 0px; white-space: pre; margin-top: 6.5px; margin-left: 13.5px;"/>
  </g>
</svg>