<?xml version="1.0" encoding="utf-8"?>
<svg viewBox="0 0 30 20" width="30" height="20" xmlns="http://www.w3.org/2000/svg">
  <g>
    <title>Layer 1</title>
    <path d="M 6 0 L 24 0 C 27.314 0 30 2.686 30 6 L 30 14 C 30 17.314 27.314 20 24 20 L 6 20 C 2.686 20 0 17.314 0 14 L 0 6 C 0 2.686 2.686 0 6 0 Z" id="svg_1" style="fill: rgb(40, 40, 40);"/>
    <path d="M 6 -0.5 L 24 -0.5 C 25.759 -0.478 27.447 0.255 28.596 1.404 C 29.745 2.553 30.478 4.241 30.5 6 L 30.5 14 C 30.478 15.759 29.745 17.447 28.596 18.596 C 27.447 19.745 25.759 20.478 24 20.5 L 6 20.5 C 4.241 20.478 2.553 19.745 1.404 18.596 C 0.255 17.447 -0.478 15.759 -0.5 14 L -0.5 6 C -0.478 4.241 0.255 2.553 1.404 1.404 C 2.553 0.255 4.241 -0.478 6 -0.5 Z M 2.111 2.111 C 1.088 3.134 0.478 4.445 0.5 6 L 0.5 14 C 0.478 15.555 1.088 16.866 2.111 17.889 C 3.134 18.912 4.445 19.522 6 19.5 L 24 19.5 C 25.555 19.522 26.866 18.912 27.889 17.889 C 28.912 16.866 29.522 15.555 29.5 14 L 29.5 6 C 29.522 4.445 28.912 3.134 27.889 2.111 C 26.866 1.088 25.555 0.478 24 0.5 L 6 0.5 C 4.445 0.478 3.134 1.088 2.111 2.111 Z" style="fill: rgba(255, 255, 255, 0);"/>
    <path d="M 43.164 0 L 90.82 0 L 113.281 -112.891 L 117.578 -134.375 L 122.07 -112.891 L 145.313 0 L 192.969 0 L 230.859 -211.328 L 181.055 -211.328 L 165.43 -86.719 L 162.695 -66.211 L 158.984 -86.328 L 136.133 -211.328 L 99.805 -211.328 L 76.953 -85.742 L 73.242 -65.625 L 70.703 -85.742 L 54.883 -211.328 L 5.273 -211.328 Z" transform="matrix(0.037393, 0, 0, 0.037394, 5.5, 14.5)" style="fill: rgb(255, 255, 255); white-space: pre;"/>
    <path d="M 396.854 -263.086 L 342.557 -263.086 L 342.557 -211.328 L 294.315 -211.328 L 294.315 -171.289 L 342.557 -171.289 L 342.557 -75.195 Q 342.557 -54.297 348.026 -39.355 Q 353.494 -24.414 363.651 -14.844 Q 373.612 -5.078 387.772 -0.488 Q 401.932 4.102 419.315 4.102 Q 428.299 4.102 437.576 3.223 Q 446.854 2.344 455.448 0.781 Q 464.041 -0.781 471.658 -3.223 Q 479.276 -5.664 484.94 -8.984 L 479.666 -46.289 Q 475.955 -45.312 470.78 -44.336 Q 465.604 -43.359 459.744 -42.578 Q 453.69 -41.602 447.147 -41.016 Q 440.604 -40.43 434.354 -40.43 Q 425.76 -40.43 418.826 -42.383 Q 411.893 -44.336 407.01 -49.023 Q 402.127 -53.516 399.491 -61.23 Q 396.854 -68.945 396.854 -80.469 L 396.854 -171.289 L 475.76 -171.289 L 475.76 -211.328 L 396.854 -211.328 Z" transform="matrix(0.037393, 0, 0, 0.037394, 5.5, 14.5)" style="fill: rgb(255, 255, 255); white-space: pre;"/>
  </g>
</svg>